<svg width="61" height="61" viewBox="0 0 61 61" fill="none" xmlns="http://www.w3.org/2000/svg">
<path d="M30.5 42.5L42.5 30.5L30.5 18.5L26.3 22.7L31.1 27.5H18.5V33.5H31.1L26.3 38.3L30.5 42.5ZM30.5 60.5C26.35 60.5 22.45 59.712 18.8 58.136C15.15 56.562 11.975 54.425 9.275 51.725C6.575 49.025 4.438 45.85 2.864 42.2C1.288 38.55 0.5 34.65 0.5 30.5C0.5 26.35 1.288 22.45 2.864 18.8C4.438 15.15 6.575 11.975 9.275 9.275C11.975 6.575 15.15 4.437 18.8 2.861C22.45 1.287 26.35 0.5 30.5 0.5C34.65 0.5 38.55 1.287 42.2 2.861C45.85 4.437 49.025 6.575 51.725 9.275C54.425 11.975 56.562 15.15 58.136 18.8C59.712 22.45 60.5 26.35 60.5 30.5C60.5 34.65 59.712 38.55 58.136 42.2C56.562 45.85 54.425 49.025 51.725 51.725C49.025 54.425 45.85 56.562 42.2 58.136C38.55 59.712 34.65 60.5 30.5 60.5Z" fill="#D7972E"/>
</svg>
